<?xml version="1.0" encoding="UTF-8" standalone="no"?>
<svg
   version="1.1"
   viewBox="0 0 906.39612 321.67053"
   fill="none"
   stroke="none"
   stroke-linecap="square"
   stroke-miterlimit="10"
   id="svg85"
   sodipodi:docname="logo_centered.svg"
   inkscape:version="1.1.2 (0a00cf5339, 2022-02-04)"
   width="906.39612"
   height="321.67053"
   xmlns:inkscape="http://www.inkscape.org/namespaces/inkscape"
   xmlns:sodipodi="http://sodipodi.sourceforge.net/DTD/sodipodi-0.dtd"
   xmlns="http://www.w3.org/2000/svg"
   xmlns:svg="http://www.w3.org/2000/svg">
  <defs
     id="defs89">
    <clipPath
       clipPathUnits="userSpaceOnUse"
       id="clipPath527">
      <rect
         style="opacity:0"
         id="rect529"
         width="936.31946"
         height="307.89816"
         x="22.912991"
         y="114.20422" />
    </clipPath>
    <clipPath
       clipPathUnits="userSpaceOnUse"
       id="clipPath316">
      <rect
         style="opacity:0"
         id="rect318"
         width="906.39612"
         height="321.67053"
         x="47.057098"
         y="112.7823" />
    </clipPath>
  </defs>
  <sodipodi:namedview
     id="namedview87"
     pagecolor="#ffffff"
     bordercolor="#666666"
     borderopacity="1.0"
     inkscape:pageshadow="2"
     inkscape:pageopacity="0.0"
     inkscape:pagecheckerboard="0"
     showgrid="false"
     inkscape:zoom="1.4944444"
     inkscape:cx="432.60224"
     inkscape:cy="187.02603"
     inkscape:window-width="1920"
     inkscape:window-height="1016"
     inkscape:window-x="0"
     inkscape:window-y="0"
     inkscape:window-maximized="1"
     inkscape:current-layer="g83" />
  <clipPath
     id="g211809a3d3e_0_457.0">
    <path
       d="M 0,0 H 960 V 540 H 0 Z"
       clip-rule="nonzero"
       id="path58" />
  </clipPath>
  <g
     clip-path="url(#clipPath527)"
     id="g83"
     transform="translate(-47.057098,-112.7823)">
    <path
       fill="#ffffff"
       d="M 0,0 H 960 V 540 H 0 Z"
       fill-rule="evenodd"
       id="path61"
       clip-path="url(#clipPath316)" />
    <path
       fill="#000000"
       d="m 228.74356,157.52812 v 0 c 0,-7.79037 6.31534,-14.10573 14.10571,-14.10573 h 168.7601 c 3.74106,0 7.32892,1.48613 9.97425,4.13147 2.64532,2.64534 4.13147,6.23319 4.13147,9.97426 v 56.42119 c 0,7.79037 -6.31534,14.10573 -14.10572,14.10573 h -168.7601 v 0 c -7.79037,0 -14.10571,-6.31536 -14.10571,-14.10573 z"
       fill-rule="evenodd"
       id="path63" />
    <path
       stroke="#ffffff"
       stroke-width="3"
       stroke-linejoin="round"
       stroke-linecap="butt"
       d="m 228.74356,157.52812 v 0 c 0,-7.79037 6.31534,-14.10573 14.10571,-14.10573 h 168.7601 c 3.74106,0 7.32892,1.48613 9.97425,4.13147 2.64532,2.64534 4.13147,6.23319 4.13147,9.97426 v 56.42119 c 0,7.79037 -6.31534,14.10573 -14.10572,14.10573 h -168.7601 v 0 c -7.79037,0 -14.10571,-6.31536 -14.10571,-14.10573 z"
       fill-rule="evenodd"
       id="path65" />
    <path
       fill="#000000"
       d="m 228.74356,242.16382 v 0 c 0,-7.79037 6.31534,-14.10573 14.10571,-14.10573 h 168.7601 c 3.74106,0 7.32892,1.48615 9.97425,4.13147 2.64532,2.64534 4.13147,6.23319 4.13147,9.97426 v 56.4212 c 0,7.79038 -6.31534,14.10572 -14.10572,14.10572 h -168.7601 v 0 c -7.79037,0 -14.10571,-6.31534 -14.10571,-14.10572 z"
       fill-rule="evenodd"
       id="path67" />
    <path
       stroke="#ffffff"
       stroke-width="3"
       stroke-linejoin="round"
       stroke-linecap="butt"
       d="m 228.74356,242.16382 v 0 c 0,-7.79037 6.31534,-14.10573 14.10571,-14.10573 h 168.7601 c 3.74106,0 7.32892,1.48615 9.97425,4.13147 2.64532,2.64534 4.13147,6.23319 4.13147,9.97426 v 56.4212 c 0,7.79038 -6.31534,14.10572 -14.10572,14.10572 h -168.7601 v 0 c -7.79037,0 -14.10571,-6.31534 -14.10571,-14.10572 z"
       fill-rule="evenodd"
       id="path69" />
    <path
       fill="#000000"
       d="m 228.74356,326.79953 v 0 c 0,-7.79037 6.31534,-14.10574 14.10571,-14.10574 h 168.7601 c 3.74106,0 7.32892,1.48614 9.97425,4.13147 2.64532,2.64535 4.13147,6.23318 4.13147,9.97427 v 56.42117 c 0,7.79038 -6.31534,14.10575 -14.10572,14.10575 h -168.7601 v 0 c -7.79037,0 -14.10571,-6.31537 -14.10571,-14.10575 z"
       fill-rule="evenodd"
       id="path71" />
    <path
       stroke="#ffffff"
       stroke-width="3"
       stroke-linejoin="round"
       stroke-linecap="butt"
       d="m 228.74356,326.79953 v 0 c 0,-7.79037 6.31534,-14.10574 14.10571,-14.10574 h 168.7601 c 3.74106,0 7.32892,1.48614 9.97425,4.13147 2.64532,2.64535 4.13147,6.23318 4.13147,9.97427 v 56.42117 c 0,7.79038 -6.31534,14.10575 -14.10572,14.10575 h -168.7601 v 0 c -7.79037,0 -14.10571,-6.31537 -14.10571,-14.10575 z"
       fill-rule="evenodd"
       id="path73" />
    <path
       fill="#000000"
       fill-opacity="0"
       d="M 425.7139,92.78871 H 778.06037 V 306.11154 H 425.7139 Z"
       fill-rule="evenodd"
       id="path75" />
    <path
       fill="#000000"
       d="m 438.22952,255.3887 q -1.4375,0 -2.48438,-1.03125 -1.03125,-1.04688 -1.03125,-2.48438 0,-0.64062 0.15625,-1.125 l 35.6875,-102.07812 q 0.46875,-1.76563 2.23438,-3.51563 1.76562,-1.76562 4.96875,-1.76562 h 34.71878 q 3.1875,0 4.95313,1.76562 1.76562,1.75 2.23437,3.51563 l 35.6875,102.07812 q 0.15625,0.48438 0.15625,1.125 0,1.4375 -1.04687,2.48438 -1.03125,1.03125 -2.46875,1.03125 h -29.59375 q -3.04688,0 -4.40625,-1.35938 -1.35938,-1.35937 -1.84375,-2.64062 l -3.84375,-10.5625 h -34.39066 l -3.84375,10.5625 q -0.48438,1.28125 -1.76563,2.64062 -1.28125,1.35938 -4.46875,1.35938 z m 47.84375,-45.76563 h 18.07812 l -9.125,-29.75 z m 82.5657,45.76563 q -1.76562,0 -3.04687,-1.28125 -1.28125,-1.28125 -1.28125,-3.03125 v -103.375 q 0,-1.75 1.28125,-3.03125 1.28125,-1.28125 3.04687,-1.28125 h 53.10938 q 15.35937,0 25.125,3.76562 9.76562,3.75 14.48437,11.20313 4.71875,7.4375 4.71875,18.625 0,5.125 -2.17187,9.20312 -2.15625,4.07813 -5.125,6.79688 -2.95313,2.71875 -5.5,4 6.07812,2.5625 10.625,8.89062 4.5625,6.3125 4.5625,14.3125 0,12 -5.28125,19.76563 -5.26563,7.75 -15.26563,11.59375 -10,3.84375 -24.5625,3.84375 z m 35.67188,-27.51563 h 14.89062 q 4,0 5.67188,-2.64062 1.6875,-2.64063 1.6875,-5.20313 0,-2.875 -1.84375,-5.35937 -1.84375,-2.48438 -5.51563,-2.48438 h -14.89062 z m 0,-42.40625 h 13.4375 q 3.53125,0 5.04687,-2.3125 1.51563,-2.32812 1.51563,-4.89062 0,-2.5625 -1.51563,-4.95313 -1.51562,-2.40625 -5.04687,-2.40625 h -13.4375 z"
       fill-rule="nonzero"
       id="path77" />
    <path
       fill="#000000"
       fill-opacity="0"
       d="M 425.7139,233.88846 H 778.06037 V 447.21127 H 425.7139 Z"
       fill-rule="evenodd"
       id="path79" />
    <path
       fill="#000000"
       d="m 490.22952,398.08218 q -17.75,0 -29.28125,-4.79688 -11.51563,-4.79687 -17.28125,-12.64062 -5.75,-7.84375 -6.07813,-16.64063 0,-1.4375 1.03125,-2.46875 1.04688,-1.04687 2.5,-1.04687 h 30.39063 q 2.5625,0 3.92187,0.71875 1.35938,0.71875 2.96875,2 1.59375,1.125 3.26563,2 1.6875,0.875 3.84375,1.28125 2.15625,0.40625 4.71875,0.40625 5.4375,0 8.71875,-1.20313 3.28125,-1.20312 3.28125,-3.28125 0,-1.92187 -1.84375,-3.20312 -1.82813,-1.28125 -6.3125,-2.3125 -4.48438,-1.04688 -12.48438,-2 -12.64062,-1.76563 -21.92187,-5.92188 -9.26563,-4.17187 -14.3125,-11.4375 -5.04688,-7.28125 -5.04688,-17.84375 0,-10.89062 6.15625,-19.20312 6.17188,-8.3125 17.125,-12.95313 10.96875,-4.64062 25.53125,-4.64062 12,0 21.26563,3.125 9.28128,3.10937 15.68753,8.15625 6.40625,5.03125 9.76563,10.79687 3.35937,5.75 3.51562,11.03125 0,1.4375 -1.04687,2.48438 -1.03125,1.04687 -2.3125,1.04687 h -32.00003 q -2.23438,0 -3.60938,-0.64062 -1.35937,-0.64063 -2.79687,-1.92188 -0.79688,-0.79687 -2.95313,-1.84375 -2.15625,-1.04687 -5.51562,-1.04687 -4,0 -5.84375,1.20312 -1.84375,1.20313 -1.84375,3.28125 0,1.4375 1.4375,2.71875 1.4375,1.28125 5.28125,2.25 3.84375,0.95313 11.04687,1.90625 16.00003,1.92188 25.67191,6.17188 9.6875,4.23437 14.07812,11.28125 4.40625,7.03125 4.40625,17.4375 0,11.67187 -6.96875,20.15625 -6.95312,8.48437 -18.95312,13.04687 -12.00003,4.54688 -27.20316,4.54688 z m 135.69193,8.8125 q -3.04687,0 -4.48437,-1.35938 -1.4375,-1.35937 -2.25,-2.32812 l -4.46875,-5.59375 q -4.32813,0.46875 -9.28125,0.46875 -15.6875,0 -27.45313,-4.79688 -11.75,-4.79687 -18.54687,-14.46875 -6.79688,-9.6875 -7.4375,-23.92187 -0.17188,-6.5625 -0.17188,-13.92188 0,-7.35937 0.17188,-14.25 0.64062,-14.07812 7.35937,-23.82812 6.71875,-9.76563 18.54688,-14.875 11.84375,-5.125 27.53125,-5.125 15.67187,0 27.51562,5.125 11.84375,5.10937 18.64063,14.875 6.79687,9.75 7.28125,23.82812 0.3125,6.89063 0.3125,14.25 0,7.35938 -0.3125,13.92188 -0.95313,18.07812 -11.51563,28.95312 l 12.64063,18.07813 q 0.15625,0.15625 0.3125,0.64062 0.15625,0.48438 0.15625,0.79688 0.32812,1.4375 -0.71875,2.48437 -1.03125,1.04688 -2.46875,1.04688 z m -20.48437,-40 q 5.28125,0 8.46875,-3.125 3.20312,-3.125 3.375,-9.84375 0.3125,-6.875 0.3125,-13.59375 0,-6.71875 -0.3125,-13.28125 -0.17188,-4.48438 -1.6875,-7.35938 -1.51563,-2.89062 -4.07813,-4.25 -2.5625,-1.35937 -6.07812,-1.35937 -3.35938,0 -6,1.35937 -2.64063,1.35938 -4.17188,4.25 -1.51562,2.875 -1.67187,7.35938 -0.15625,6.5625 -0.15625,13.28125 0,6.71875 0.15625,13.59375 0.32812,6.71875 3.4375,9.84375 3.125,3.125 8.40625,3.125 z m 72.64197,29.59375 q -1.76563,0 -3.04688,-1.28125 -1.28125,-1.28125 -1.28125,-3.03125 v -103.375 q 0,-1.75 1.28125,-3.03125 1.28125,-1.28125 3.04688,-1.28125 h 32 q 1.75,0 3.03125,1.28125 1.28125,1.28125 1.28125,3.03125 v 74.89062 h 44.32812 q 1.75,0 3.03125,1.28125 1.28125,1.28125 1.28125,3.03125 v 24.17188 q 0,1.75 -1.28125,3.03125 -1.28125,1.28125 -3.03125,1.28125 z"
       fill-rule="nonzero"
       id="path81" />
  </g>
  <rect
     style="opacity:0"
     id="rect193"
     width="926.4234"
     height="351.77682"
     x="-52.567089"
     y="-31.00808" />
  <rect
     style="opacity:0"
     id="rect217"
     width="119.29601"
     height="36.580795"
     x="-7.8613311e-09"
     y="-3.2763671e-07" />
  <rect
     style="opacity:0"
     id="rect321"
     width="895.78387"
     height="314.52689"
     x="16.391438"
     y="-5.2067952" />
  <rect
     style="opacity:0"
     id="rect46"
     width="947.19043"
     height="344.2359"
     x="-40.794319"
     y="-22.565351" />
  <rect
     style="opacity:0"
     id="rect50"
     width="952.96967"
     height="331.88547"
     x="-40.794319"
     y="-22.565351" />
</svg>
