<svg version="1.1" viewBox="0.0 0.0 960.0 540.0" fill="none" stroke="none" stroke-linecap="square" stroke-miterlimit="10" xmlns:xlink="http://www.w3.org/1999/xlink" xmlns="http://www.w3.org/2000/svg"><clipPath id="g211809a3d3e_0_457.0"><path d="m0 0l960.0 0l0 540.0l-960.0 0l0 -540.0z" clip-rule="nonzero"/></clipPath><g clip-path="url(#g211809a3d3e_0_457.0)"><path fill="#ffffff" d="m0 0l960.0 0l0 540.0l-960.0 0z" fill-rule="evenodd"/><path fill="#000000" d="m228.74356 157.52812l0 0c0 -7.7903748 6.315338 -14.105728 14.105713 -14.105728l168.7601 0c3.7410583 0 7.3289185 1.4861298 9.974243 4.1314697c2.6453247 2.64534 4.1314697 6.233185 4.1314697 9.974258l0 56.42119c0 7.7903748 -6.315338 14.105728 -14.105713 14.105728l-168.7601 0l0 0c-7.7903748 0 -14.105713 -6.3153534 -14.105713 -14.105728z" fill-rule="evenodd"/><path stroke="#ffffff" stroke-width="3.0" stroke-linejoin="round" stroke-linecap="butt" d="m228.74356 157.52812l0 0c0 -7.7903748 6.315338 -14.105728 14.105713 -14.105728l168.7601 0c3.7410583 0 7.3289185 1.4861298 9.974243 4.1314697c2.6453247 2.64534 4.1314697 6.233185 4.1314697 9.974258l0 56.42119c0 7.7903748 -6.315338 14.105728 -14.105713 14.105728l-168.7601 0l0 0c-7.7903748 0 -14.105713 -6.3153534 -14.105713 -14.105728z" fill-rule="evenodd"/><path fill="#000000" d="m228.74356 242.16382l0 0c0 -7.7903748 6.315338 -14.105728 14.105713 -14.105728l168.7601 0c3.7410583 0 7.3289185 1.486145 9.974243 4.1314697c2.6453247 2.64534 4.1314697 6.233185 4.1314697 9.974258l0 56.421204c0 7.7903748 -6.315338 14.105713 -14.105713 14.105713l-168.7601 0l0 0c-7.7903748 0 -14.105713 -6.315338 -14.105713 -14.105713z" fill-rule="evenodd"/><path stroke="#ffffff" stroke-width="3.0" stroke-linejoin="round" stroke-linecap="butt" d="m228.74356 242.16382l0 0c0 -7.7903748 6.315338 -14.105728 14.105713 -14.105728l168.7601 0c3.7410583 0 7.3289185 1.486145 9.974243 4.1314697c2.6453247 2.64534 4.1314697 6.233185 4.1314697 9.974258l0 56.421204c0 7.7903748 -6.315338 14.105713 -14.105713 14.105713l-168.7601 0l0 0c-7.7903748 0 -14.105713 -6.315338 -14.105713 -14.105713z" fill-rule="evenodd"/><path fill="#000000" d="m228.74356 326.79953l0 0c0 -7.7903748 6.315338 -14.105743 14.105713 -14.105743l168.7601 0c3.7410583 0 7.3289185 1.486145 9.974243 4.1314697c2.6453247 2.6453552 4.1314697 6.233185 4.1314697 9.974274l0 56.421173c0 7.7903748 -6.315338 14.105743 -14.105713 14.105743l-168.7601 0l0 0c-7.7903748 0 -14.105713 -6.3153687 -14.105713 -14.105743z" fill-rule="evenodd"/><path stroke="#ffffff" stroke-width="3.0" stroke-linejoin="round" stroke-linecap="butt" d="m228.74356 326.79953l0 0c0 -7.7903748 6.315338 -14.105743 14.105713 -14.105743l168.7601 0c3.7410583 0 7.3289185 1.486145 9.974243 4.1314697c2.6453247 2.6453552 4.1314697 6.233185 4.1314697 9.974274l0 56.421173c0 7.7903748 -6.315338 14.105743 -14.105713 14.105743l-168.7601 0l0 0c-7.7903748 0 -14.105713 -6.3153687 -14.105713 -14.105743z" fill-rule="evenodd"/><path fill="#000000" fill-opacity="0.0" d="m425.7139 92.78871l352.34647 0l0 213.32283l-352.34647 0z" fill-rule="evenodd"/><path fill="#000000" d="m438.22952 255.3887q-1.4375 0 -2.484375 -1.03125q-1.03125 -1.046875 -1.03125 -2.484375q0 -0.640625 0.15625 -1.125l35.6875 -102.078125q0.46875 -1.765625 2.234375 -3.515625q1.765625 -1.765625 4.96875 -1.765625l34.71878 0q3.1875 0 4.953125 1.765625q1.765625 1.75 2.234375 3.515625l35.6875 102.078125q0.15625 0.484375 0.15625 1.125q0 1.4375 -1.046875 2.484375q-1.03125 1.03125 -2.46875 1.03125l-29.59375 0q-3.046875 0 -4.40625 -1.359375q-1.359375 -1.359375 -1.84375 -2.640625l-3.84375 -10.5625l-34.390656 0l-3.84375 10.5625q-0.484375 1.28125 -1.765625 2.640625q-1.28125 1.359375 -4.46875 1.359375l-29.609375 0zm47.84375 -45.765625l18.078125 0l-9.125 -29.75l-8.953125 29.75zm82.565704 45.765625q-1.765625 0 -3.046875 -1.28125q-1.28125 -1.28125 -1.28125 -3.03125l0 -103.375q0 -1.75 1.28125 -3.03125q1.28125 -1.28125 3.046875 -1.28125l53.109375 0q15.359375 0 25.125 3.765625q9.765625 3.75 14.484375 11.203125q4.71875 7.4375 4.71875 18.625q0 5.125 -2.171875 9.203125q-2.15625 4.078125 -5.125 6.796875q-2.953125 2.71875 -5.5 4.0q6.078125 2.5625 10.625 8.890625q4.5625 6.3125 4.5625 14.3125q0 12.0 -5.28125 19.765625q-5.265625 7.75 -15.265625 11.59375q-10.0 3.84375 -24.5625 3.84375l-54.71875 0zm35.671875 -27.515625l14.890625 0q4.0 0 5.671875 -2.640625q1.6875 -2.640625 1.6875 -5.203125q0 -2.875 -1.84375 -5.359375q-1.84375 -2.484375 -5.515625 -2.484375l-14.890625 0l0 15.6875zm0 -42.40625l13.4375 0q3.53125 0 5.046875 -2.3125q1.515625 -2.328125 1.515625 -4.890625q0 -2.5625 -1.515625 -4.953125q-1.515625 -2.40625 -5.046875 -2.40625l-13.4375 0l0 14.5625z" fill-rule="nonzero"/><path fill="#000000" fill-opacity="0.0" d="m425.7139 233.88846l352.34647 0l0 213.32281l-352.34647 0z" fill-rule="evenodd"/><path fill="#000000" d="m490.22952 398.08218q-17.75 0 -29.28125 -4.796875q-11.515625 -4.796875 -17.28125 -12.640625q-5.75 -7.84375 -6.078125 -16.640625q0 -1.4375 1.03125 -2.46875q1.046875 -1.046875 2.5 -1.046875l30.390625 0q2.5625 0 3.921875 0.71875q1.359375 0.71875 2.96875 2.0q1.59375 1.125 3.265625 2.0q1.6875 0.875 3.84375 1.28125q2.15625 0.40625 4.71875 0.40625q5.4375 0 8.71875 -1.203125q3.28125 -1.203125 3.28125 -3.28125q0 -1.921875 -1.84375 -3.203125q-1.828125 -1.28125 -6.3125 -2.3125q-4.484375 -1.046875 -12.484375 -2.0q-12.640625 -1.765625 -21.921875 -5.921875q-9.265625 -4.171875 -14.3125 -11.4375q-5.046875 -7.28125 -5.046875 -17.84375q0 -10.890625 6.15625 -19.203125q6.171875 -8.3125 17.125 -12.953125q10.96875 -4.640625 25.53125 -4.640625q12.0 0 21.265625 3.125q9.2812805 3.109375 15.6875305 8.15625q6.40625 5.03125 9.765625 10.796875q3.359375 5.75 3.515625 11.03125q0 1.4375 -1.046875 2.484375q-1.03125 1.046875 -2.3125 1.046875l-32.00003 0q-2.234375 0 -3.609375 -0.640625q-1.359375 -0.640625 -2.796875 -1.921875q-0.796875 -0.796875 -2.953125 -1.84375q-2.15625 -1.046875 -5.515625 -1.046875q-4.0 0 -5.84375 1.203125q-1.84375 1.203125 -1.84375 3.28125q0 1.4375 1.4375 2.71875q1.4375 1.28125 5.28125 2.25q3.84375 0.953125 11.046875 1.90625q16.00003 1.921875 25.671906 6.171875q9.6875 4.234375 14.078125 11.28125q4.40625 7.03125 4.40625 17.4375q0 11.671875 -6.96875 20.15625q-6.953125 8.484375 -18.953125 13.046875q-12.0000305 4.546875 -27.203156 4.546875zm135.69193 8.8125q-3.046875 0 -4.484375 -1.359375q-1.4375 -1.359375 -2.25 -2.328125l-4.46875 -5.59375q-4.328125 0.46875 -9.28125 0.46875q-15.6875 0 -27.453125 -4.796875q-11.75 -4.796875 -18.546875 -14.46875q-6.796875 -9.6875 -7.4375 -23.921875q-0.171875 -6.5625 -0.171875 -13.921875q0 -7.359375 0.171875 -14.25q0.640625 -14.078125 7.359375 -23.828125q6.71875 -9.765625 18.546875 -14.875q11.84375 -5.125 27.53125 -5.125q15.671875 0 27.515625 5.125q11.84375 5.109375 18.640625 14.875q6.796875 9.75 7.28125 23.828125q0.3125 6.890625 0.3125 14.25q0 7.359375 -0.3125 13.921875q-0.953125 18.078125 -11.515625 28.953125l12.640625 18.078125q0.15625 0.15625 0.3125 0.640625q0.15625 0.484375 0.15625 0.796875q0.328125 1.4375 -0.71875 2.484375q-1.03125 1.046875 -2.46875 1.046875l-31.359375 0zm-20.484375 -40.0q5.28125 0 8.46875 -3.125q3.203125 -3.125 3.375 -9.84375q0.3125 -6.875 0.3125 -13.59375q0 -6.71875 -0.3125 -13.28125q-0.171875 -4.484375 -1.6875 -7.359375q-1.515625 -2.890625 -4.078125 -4.25q-2.5625 -1.359375 -6.078125 -1.359375q-3.359375 0 -6.0 1.359375q-2.640625 1.359375 -4.171875 4.25q-1.515625 2.875 -1.671875 7.359375q-0.15625 6.5625 -0.15625 13.28125q0 6.71875 0.15625 13.59375q0.328125 6.71875 3.4375 9.84375q3.125 3.125 8.40625 3.125zm72.64197 29.59375q-1.765625 0 -3.046875 -1.28125q-1.28125 -1.28125 -1.28125 -3.03125l0 -103.375q0 -1.75 1.28125 -3.03125q1.28125 -1.28125 3.046875 -1.28125l32.0 0q1.75 0 3.03125 1.28125q1.28125 1.28125 1.28125 3.03125l0 74.890625l44.328125 0q1.75 0 3.03125 1.28125q1.28125 1.28125 1.28125 3.03125l0 24.171875q0 1.75 -1.28125 3.03125q-1.28125 1.28125 -3.03125 1.28125l-80.640625 0z" fill-rule="nonzero"/></g></svg>